<svg version="1.1" id="Layer_1" xmlns="http://www.w3.org/2000/svg" xmlns:xlink="http://www.w3.org/1999/xlink" x="0px" y="0px"
	 width="100%" viewBox="0 0 1024 1024" enable-background="new 0 0 1024 1024" xml:space="preserve">
<path fill="#000000" opacity="1.000000" stroke="none" 
	d="
M535.009521,221.915131 
	C590.002747,252.671661 625.120422,298.348572 638.505493,359.506226 
	C650.714661,415.291229 640.377014,467.589172 609.636719,515.799622 
	C605.663330,522.031128 604.452698,520.535950 611.070801,527.153442 
	C663.501038,579.579346 715.731506,632.207520 768.479614,684.311707 
	C787.491089,703.091003 781.185486,735.730225 755.100403,743.520386 
	C741.591858,747.554688 729.640686,744.095886 719.766968,734.248535 
	C676.234680,690.833130 632.808105,647.311707 589.343140,603.828857 
	C579.919739,594.401672 570.388977,585.078308 561.128174,575.494019 
	C557.687378,571.932983 554.838806,571.822021 550.739197,574.521362 
	C512.604126,599.630981 470.461304,611.203979 425.101562,607.988586 
	C360.809296,603.431213 309.054321,574.793823 270.867737,522.578064 
	C252.173325,497.015717 239.955841,468.432220 235.321228,437.121216 
	C224.954117,367.081848 244.150970,306.239105 294.437927,256.003662 
	C325.318909,225.154282 362.899353,206.643494 405.974823,200.050262 
	C451.125671,193.139343 494.168152,200.343155 535.009521,221.915131 
M361.058075,290.588440 
	C314.208588,323.584534 292.458099,379.557251 305.377167,433.877747 
	C319.250458,492.210449 368.673767,534.741943 428.241119,538.500183 
	C473.759613,541.372070 512.097046,525.324463 541.591248,490.496765 
	C570.333252,456.557312 579.245056,416.977478 570.534485,373.587280 
	C566.373474,352.860443 557.113953,334.238037 543.709229,317.843231 
	C519.665771,288.436737 488.592621,271.365540 450.906097,267.592346 
	C418.686920,264.366577 388.750916,272.159210 361.058075,290.588440 
z"/>
</svg>