<?xml version="1.0" standalone="no"?>
<!DOCTYPE svg PUBLIC "-//W3C//DTD SVG 20010904//EN"
 "http://www.w3.org/TR/2001/REC-SVG-20010904/DTD/svg10.dtd">
<svg version="1.0" xmlns="http://www.w3.org/2000/svg"
 width="204.000000pt" height="192.000000pt" viewBox="0 0 204.000000 192.000000"
 preserveAspectRatio="xMidYMid meet">

<g transform="translate(0.000000,192.000000) scale(0.100000,-0.100000)"
fill="#000000" stroke="none">
<path d="M1205 1682 c-47 -17 -519 -264 -645 -338 -69 -40 -106 -84 -126 -150
-19 -65 -18 -114 6 -177 25 -67 77 -118 160 -155 l65 -29 -73 -38 c-86 -45
-137 -99 -157 -169 -19 -63 -19 -99 0 -164 19 -62 61 -113 124 -150 40 -23 57
-27 126 -27 l80 0 329 175 c180 96 347 192 371 212 112 98 113 283 1 387 -15
14 -56 39 -92 56 l-66 32 69 36 c37 19 82 51 100 69 120 125 86 336 -67 413
-67 34 -142 40 -205 17z m153 -67 c82 -35 126 -107 120 -196 -6 -85 -37 -122
-150 -186 l-93 -51 0 -42 0 -42 70 -28 c120 -48 175 -111 175 -204 0 -99 -36
-141 -194 -224 -144 -77 -230 -123 -396 -213 -120 -64 -142 -73 -200 -76 -60
-4 -69 -2 -112 27 -110 73 -118 229 -17 314 18 15 63 43 101 62 l68 34 0 46
c0 43 -2 46 -37 61 -110 45 -145 66 -170 104 -50 76 -39 192 25 251 24 23 266
156 589 325 112 58 154 65 221 38z"/>
<path d="M840 985 l0 -185 108 57 c240 128 243 130 230 140 -16 13 -324 173
-332 173 -3 0 -6 -83 -6 -185z"/>
</g>
</svg>
