<svg version="1.1" id="Layer_1" xmlns="http://www.w3.org/2000/svg" xmlns:xlink="http://www.w3.org/1999/xlink" x="0px" y="0px"
	 width="100%" viewBox="0 0 240 192" enable-background="new 0 0 240 192" xml:space="preserve">
<path fill="#000000" opacity="1.000000" stroke="none" 
	d="
M83.468651,193.000000 
	C79.026657,188.261246 72.778793,186.983490 68.096786,183.158356 
	C64.537849,180.250763 60.813900,177.423874 57.165348,174.576004 
	C55.376492,173.179718 53.776653,172.792786 51.074890,173.462189 
	C53.067776,169.653763 50.905010,167.657028 48.768333,165.290405 
	C39.686527,155.231155 34.117115,143.179077 29.807156,130.495026 
	C26.037376,119.400711 23.582148,107.859993 25.143089,96.284119 
	C27.432184,79.308289 31.471882,62.654850 41.853439,48.368969 
	C45.367687,43.533073 48.991795,38.774105 52.399975,33.864925 
	C55.342430,29.626581 59.864231,27.297274 63.782936,24.323990 
	C73.463150,16.979200 83.718979,10.521040 95.483833,6.871970 
	C97.196999,6.340603 98.817047,5.508994 100.681335,4.732532 
	C98.331795,3.443616 98.331795,3.443616 88.413170,6.404631 
	C86.859596,4.968140 88.321724,3.256005 88.006104,1.355279 
	C93.022095,1.000000 98.044182,1.000000 103.436386,1.266103 
	C103.766647,2.006257 103.726807,2.480306 103.686966,2.954356 
	C106.962547,1.447515 111.336311,5.735751 114.000000,1.000000 
	C121.020950,1.000000 128.041901,1.000000 135.761139,1.275079 
	C137.519516,2.659745 138.714645,3.382901 140.318115,3.608989 
	C168.128342,7.530208 189.780884,21.666080 206.451462,43.847260 
	C214.547989,54.620174 219.416595,66.983818 223.296631,79.774559 
	C226.174988,89.263290 226.266525,99.047127 225.804230,108.777351 
	C225.606140,112.946754 223.515594,117.066292 228.037460,121.320969 
	C224.951508,120.452301 223.960922,120.589813 223.323456,123.169258 
	C221.861984,129.082901 220.263260,134.979782 217.547760,140.560318 
	C208.874908,158.383652 197.537506,173.811081 180.696014,184.914307 
	C176.766724,187.504776 171.467789,188.282196 169.000000,193.000000 
	C160.979095,193.000000 152.958191,193.000000 144.661926,192.693359 
	C145.175079,191.140198 146.459274,190.876633 147.776657,190.537704 
	C162.697189,186.698868 175.890396,179.709305 187.310928,169.274536 
	C189.424911,167.343018 189.993820,165.959427 188.818954,163.375015 
	C183.987244,152.746460 177.373444,143.432159 167.797150,136.713013 
	C156.836075,129.022263 145.377350,122.210358 130.741928,125.391235 
	C130.271744,124.577660 133.138229,124.364967 131.675522,123.009506 
	C121.461929,122.709000 111.446716,123.329987 101.616516,126.811569 
	C82.944832,133.424530 70.019867,145.919922 61.990742,163.799271 
	C61.035618,165.926163 61.615582,167.335648 63.394859,168.967834 
	C73.738632,178.456589 85.330910,185.607895 99.094925,188.940659 
	C102.318085,189.721100 105.663605,190.261597 108.000000,193.000000 
	C99.979103,193.000000 91.958199,193.000000 83.468651,193.000000 
M47.589771,54.075619 
	C35.967182,74.047905 31.626917,95.260925 35.983532,118.158485 
	C41.333015,117.425781 36.042465,112.753693 39.390816,111.430382 
	C41.015156,113.213860 42.605202,114.959686 44.329960,116.853424 
	C41.830555,118.929276 39.508289,120.858009 36.987419,122.951691 
	C39.943848,135.834167 44.716755,147.772186 54.376595,158.488846 
	C65.400581,138.309387 81.320091,124.707993 102.950035,116.965492 
	C100.415382,114.933746 98.768097,113.593636 97.100266,112.279602 
	C86.874580,104.223061 81.124817,93.372673 79.754517,80.774338 
	C77.171005,57.021965 96.116425,35.494877 118.214081,31.776497 
	C121.836357,31.166977 124.109253,30.379875 124.613953,25.984978 
	C128.291519,29.135876 132.478775,23.965382 136.033020,27.664421 
	C133.553787,30.927488 129.760727,27.881750 125.986526,30.841177 
	C148.997986,32.536964 163.565094,44.939751 169.708420,65.090378 
	C176.219528,86.447327 166.121948,103.146507 148.673721,116.906799 
	C170.042053,125.343140 186.576050,138.210526 196.349121,158.659958 
	C213.178772,142.542282 221.778381,103.574883 213.636108,85.216927 
	C211.647171,88.863213 216.491791,93.924263 211.023102,96.561844 
	C210.168198,94.730858 211.914871,92.666061 210.066330,91.250893 
	C208.348862,91.525978 207.155396,94.212708 205.197693,92.691040 
	C202.868500,90.880608 206.552200,89.773926 205.962738,87.573120 
	C202.544281,90.236366 200.643402,88.142700 198.292221,85.730865 
	C195.775223,83.148888 198.973160,81.965584 199.033722,80.122444 
	C196.992538,77.540291 194.988281,75.004852 192.747345,72.170006 
	C195.756195,70.023834 197.115204,66.972260 198.826569,64.178474 
	C200.864258,60.852013 202.594559,61.336975 204.908859,64.058952 
	C209.972885,70.015030 210.722336,77.016289 210.275909,84.689445 
	C215.417618,82.820961 213.862274,79.090294 212.970352,75.950760 
	C209.232269,62.792809 202.780518,51.248962 193.442093,41.055149 
	C185.906555,32.829369 177.378860,26.423771 167.600037,21.164934 
	C157.992096,15.998002 147.418900,14.747193 137.178391,12.103056 
	C135.667953,11.713054 133.647461,11.832134 132.321640,12.555903 
	C130.573181,13.510386 128.917267,12.863058 127.472977,13.139150 
	C122.246025,14.138338 117.436470,10.624046 112.592804,11.942785 
	C108.504776,13.055796 104.371780,13.832651 100.304161,14.860937 
	C77.689178,20.577967 60.199924,33.517521 47.589771,54.075619 
M160.623871,65.902107 
	C159.223038,58.493038 155.101273,52.644943 149.347870,48.168423 
	C143.386459,43.530071 137.057663,39.056232 128.515228,41.961983 
	C127.030945,39.451897 125.047638,38.138065 122.236511,40.605362 
	C121.507889,41.244873 120.711693,41.241409 119.903923,41.015530 
	C115.273308,39.720642 111.114487,41.952721 107.568832,43.894337 
	C85.843353,55.791294 84.915306,82.432877 94.552742,97.691406 
	C104.477188,113.404358 127.037071,117.931595 143.895294,109.319145 
	C158.098923,102.062881 165.987549,83.242836 160.623871,65.902107 
z"/>
<path fill="#000000" opacity="1.000000" stroke="none" 
	d="
M241.000000,11.517044 
	C236.219818,10.394923 231.486755,12.871794 226.680466,12.150486 
	C224.444687,11.814949 222.181854,12.452985 219.837936,11.626535 
	C217.083862,10.655448 214.607315,12.218619 212.633118,14.033401 
	C209.233292,17.158659 209.318008,17.250811 206.088745,13.434842 
	C203.500946,16.941135 201.154633,17.711447 198.240829,13.383075 
	C196.698853,11.092507 193.518021,9.950037 191.767044,7.490623 
	C191.489151,7.100288 190.936005,6.454892 190.731506,6.530020 
	C186.754272,7.991102 182.724792,4.725558 178.887848,6.588587 
	C177.546478,7.239893 176.613785,7.577868 175.250809,6.893667 
	C174.414368,6.473771 172.864639,5.978388 172.497330,6.355840 
	C169.420547,9.517671 165.810089,7.731848 162.807297,7.009822 
	C157.830338,5.813107 153.114258,3.531384 148.144135,1.353377 
	C179.000015,1.000000 210.000046,1.000000 241.000000,1.000000 
	C241.000000,4.397438 241.000000,7.715763 241.000000,11.517044 
z"/>
<path fill="#000000" opacity="1.000000" stroke="none" 
	d="
M214.434174,36.578133 
	C213.228210,38.625607 212.171967,40.311802 214.414047,42.066814 
	C215.133682,42.630100 215.140869,43.589874 214.490311,44.281578 
	C213.637695,45.188107 212.657608,44.975620 211.892303,44.151348 
	C209.427673,41.496773 207.012985,38.795826 204.271103,35.773293 
	C209.986557,32.433392 206.377228,30.045851 203.367889,27.654640 
	C205.236404,25.272455 207.022385,25.551216 208.358063,27.449114 
	C210.419113,30.377743 213.137283,32.858025 214.434174,36.578133 
z"/>
<path fill="#000000" opacity="1.000000" stroke="none" 
	d="
M201.905853,22.165722 
	C204.040939,23.028101 204.165756,24.515318 202.378235,24.842003 
	C199.864807,25.301355 201.104004,30.097397 197.621307,28.623007 
	C196.120010,27.987438 196.773514,26.744858 197.556000,25.743084 
	C198.687653,24.294319 198.777130,21.699181 201.905853,22.165722 
z"/>
<path fill="#000000" opacity="1.000000" stroke="none" 
	d="
M210.268280,169.079269 
	C207.760910,169.039536 205.910858,168.168549 205.594376,165.625870 
	C205.545181,165.230545 206.484451,164.276413 206.836807,164.336884 
	C209.302307,164.760162 210.223160,166.578354 210.268280,169.079269 
z"/>
<path fill="#000000" opacity="1.000000" stroke="none" 
	d="
M198.951202,60.942444 
	C194.261536,57.957520 198.737747,56.574936 199.718277,54.521751 
	C200.678604,56.762386 201.543976,58.965546 198.951202,60.942444 
z"/>
</svg>